<?xml version="1.0" standalone="no"?>
<!DOCTYPE svg PUBLIC "-//W3C//DTD SVG 20010904//EN"
 "http://www.w3.org/TR/2001/REC-SVG-20010904/DTD/svg10.dtd">
<svg version="1.0" xmlns="http://www.w3.org/2000/svg"
 width="192.000000pt" height="192.000000pt" viewBox="0 0 192.000000 192.000000"
 preserveAspectRatio="xMidYMid meet">
<metadata>
Created by potrace 1.11, written by Peter Selinger 2001-2013
</metadata>
<g transform="translate(0.000000,192.000000) scale(0.100000,-0.100000)"
fill="#000000" stroke="none">
<path d="M1180 1729 c-73 -29 -136 -116 -123 -170 21 -89 157 -123 250 -62 71
47 68 174 -6 230 -19 15 -86 16 -121 2z"/>
<path d="M730 1650 c-55 -29 -91 -73 -97 -117 -4 -34 -1 -45 24 -73 25 -28 38
-34 86 -38 98 -8 167 41 167 119 0 107 -87 159 -180 109z"/>
<path d="M980 1250 c-103 -22 -237 -107 -313 -200 -83 -100 -111 -199 -105
-365 4 -99 7 -118 37 -180 40 -87 110 -155 189 -186 75 -30 238 -33 323 -7
108 34 198 118 199 186 0 36 -28 26 -89 -31 -68 -62 -122 -83 -179 -68 -41 11
-100 67 -126 118 l-16 32 46 20 c188 84 354 298 354 459 0 84 -49 166 -121
202 -46 24 -136 33 -199 20z m85 -120 c45 -88 -18 -297 -127 -416 -50 -54 -52
-55 -60 -33 -19 50 23 291 66 384 43 95 92 122 121 65z"/>
</g>
</svg>
