<svg width="21" height="21" viewBox="0 0 21 21" fill="none" xmlns="http://www.w3.org/2000/svg">
<path d="M13.3299 10.5005L20.707 3.12335C21.0963 2.73403 21.0963 2.0975 20.707 1.70817L19.2918 0.291993C18.9025 -0.0973311 18.266 -0.0973311 17.8766 0.291993L10.4995 7.67014L3.12235 0.292994C2.73303 -0.0963303 2.0965 -0.0963303 1.70717 0.292994L0.291993 1.70817C-0.0973311 2.0975 -0.0973311 2.73403 0.291993 3.12335L7.66914 10.5005L0.291993 17.8776C-0.0973311 18.267 -0.0973311 18.9035 0.291993 19.2928L1.70817 20.708C2.0975 21.0973 2.73403 21.0973 3.12335 20.708L10.5005 13.3309L17.8776 20.708C18.267 21.0973 18.9035 21.0973 19.2928 20.708L20.708 19.2928C21.0973 18.9035 21.0973 18.267 20.708 17.8776L13.3299 10.5005Z" fill="#FB565A" fill-opacity="0.3"/>
</svg>
